<mxfile host="app.diagrams.net" modified="2021-03-22T12:27:58.898Z" agent="5.0 (Windows NT 10.0; Win64; x64) AppleWebKit/537.36 (KHTML, like Gecko) Chrome/89.0.4389.90 Safari/537.36" etag="FS1XhWOmUece17ivuqn8" version="14.4.9" type="github">
  <diagram id="VrStE_fAxhgLuENRNZGQ" name="Page-1">
    <mxGraphModel dx="1038" dy="1717" grid="1" gridSize="10" guides="1" tooltips="1" connect="1" arrows="1" fold="1" page="1" pageScale="1" pageWidth="827" pageHeight="1169" math="0" shadow="0">
      <root>
        <mxCell id="0" />
        <mxCell id="1" parent="0" />
        <mxCell id="3x9aasJJsVm33-Eb7aBt-1" value="Story" style="swimlane;html=1;childLayout=stackLayout;startSize=20;rounded=0;shadow=0;comic=0;labelBackgroundColor=none;strokeWidth=1;fontFamily=Verdana;fontSize=12;align=center;" vertex="1" parent="1">
          <mxGeometry x="30" y="-1080" width="1050" height="1950" as="geometry" />
        </mxCell>
        <mxCell id="3x9aasJJsVm33-Eb7aBt-2" value="&lt;font color=&quot;#262626&quot;&gt;&lt;span style=&quot;font-size: 14px ; font-weight: 400 ; letter-spacing: 0.733333px&quot;&gt;锅炉房&lt;/span&gt;&lt;/font&gt;" style="swimlane;html=1;startSize=20;" vertex="1" parent="3x9aasJJsVm33-Eb7aBt-1">
          <mxGeometry y="20" width="340" height="1930" as="geometry" />
        </mxCell>
        <mxCell id="3x9aasJJsVm33-Eb7aBt-3" style="edgeStyle=orthogonalEdgeStyle;rounded=0;orthogonalLoop=1;jettySize=auto;html=1;entryX=0.5;entryY=0;entryDx=0;entryDy=0;strokeColor=#000000;" edge="1" parent="3x9aasJJsVm33-Eb7aBt-2" source="3x9aasJJsVm33-Eb7aBt-4" target="3x9aasJJsVm33-Eb7aBt-14">
          <mxGeometry relative="1" as="geometry" />
        </mxCell>
        <mxCell id="3x9aasJJsVm33-Eb7aBt-4" value="EP08-01_0" style="rounded=1;whiteSpace=wrap;html=1;shadow=0;comic=0;labelBackgroundColor=none;strokeWidth=1;fontFamily=Verdana;fontSize=12;align=center;arcSize=50;" vertex="1" parent="3x9aasJJsVm33-Eb7aBt-2">
          <mxGeometry x="97.5" y="120" width="100" height="30" as="geometry" />
        </mxCell>
        <mxCell id="3x9aasJJsVm33-Eb7aBt-5" style="edgeStyle=none;rounded=0;html=1;dashed=1;labelBackgroundColor=none;startArrow=none;startFill=0;startSize=5;endArrow=oval;endFill=0;endSize=5;jettySize=auto;orthogonalLoop=1;strokeWidth=1;fontFamily=Verdana;fontSize=12;exitX=0.5;exitY=0;exitDx=0;exitDy=0;exitPerimeter=0;entryX=0.1;entryY=1.173;entryDx=0;entryDy=0;entryPerimeter=0;" edge="1" parent="3x9aasJJsVm33-Eb7aBt-2" source="3x9aasJJsVm33-Eb7aBt-7" target="3x9aasJJsVm33-Eb7aBt-4">
          <mxGeometry relative="1" as="geometry">
            <mxPoint x="217.5" y="277.8780487804878" as="sourcePoint" />
            <mxPoint x="137.5" y="150" as="targetPoint" />
          </mxGeometry>
        </mxCell>
        <mxCell id="3x9aasJJsVm33-Eb7aBt-6" style="edgeStyle=orthogonalEdgeStyle;rounded=0;html=1;labelBackgroundColor=none;startArrow=none;startFill=0;startSize=5;endArrow=classicThin;endFill=1;endSize=5;jettySize=auto;orthogonalLoop=1;strokeWidth=1;fontFamily=Verdana;fontSize=12" edge="1" parent="3x9aasJJsVm33-Eb7aBt-2" target="3x9aasJJsVm33-Eb7aBt-4">
          <mxGeometry relative="1" as="geometry">
            <mxPoint x="147.5" y="90" as="sourcePoint" />
          </mxGeometry>
        </mxCell>
        <mxCell id="3x9aasJJsVm33-Eb7aBt-7" value="EP08-01" style="shape=note;whiteSpace=wrap;html=1;rounded=0;shadow=0;comic=0;labelBackgroundColor=none;strokeWidth=1;fontFamily=Verdana;fontSize=12;align=center;size=20;fillColor=#dae8fc;strokeColor=#6c8ebf;" vertex="1" parent="3x9aasJJsVm33-Eb7aBt-2">
          <mxGeometry x="37.5" y="180" width="75" height="44" as="geometry" />
        </mxCell>
        <mxCell id="3x9aasJJsVm33-Eb7aBt-8" value="" style="shape=umlActor;verticalLabelPosition=bottom;verticalAlign=top;html=1;outlineConnect=0;" vertex="1" parent="3x9aasJJsVm33-Eb7aBt-2">
          <mxGeometry x="132.5" y="40" width="30" height="60" as="geometry" />
        </mxCell>
        <mxCell id="3x9aasJJsVm33-Eb7aBt-9" style="edgeStyle=none;rounded=0;orthogonalLoop=1;jettySize=auto;html=1;dashed=1;startArrow=oval;startFill=0;" edge="1" parent="3x9aasJJsVm33-Eb7aBt-2" source="3x9aasJJsVm33-Eb7aBt-10" target="3x9aasJJsVm33-Eb7aBt-4">
          <mxGeometry relative="1" as="geometry" />
        </mxCell>
        <mxCell id="3x9aasJJsVm33-Eb7aBt-10" value="&lt;font color=&quot;#262626&quot;&gt;&lt;span style=&quot;font-size: 14px ; letter-spacing: 0.733333px&quot;&gt;锅炉房&lt;/span&gt;&lt;/font&gt;" style="shape=card;whiteSpace=wrap;html=1;size=20;fillColor=#d5e8d4;strokeColor=#82b366;" vertex="1" parent="3x9aasJJsVm33-Eb7aBt-2">
          <mxGeometry x="207.5" y="180" width="80" height="40" as="geometry" />
        </mxCell>
        <mxCell id="3x9aasJJsVm33-Eb7aBt-11" style="edgeStyle=none;rounded=0;orthogonalLoop=1;jettySize=auto;html=1;entryX=1;entryY=0.25;entryDx=0;entryDy=0;startArrow=oval;startFill=0;" edge="1" parent="3x9aasJJsVm33-Eb7aBt-2" source="3x9aasJJsVm33-Eb7aBt-12" target="3x9aasJJsVm33-Eb7aBt-4">
          <mxGeometry relative="1" as="geometry" />
        </mxCell>
        <mxCell id="3x9aasJJsVm33-Eb7aBt-12" value="&lt;font color=&quot;#262626&quot;&gt;&lt;span style=&quot;font-size: 14px ; letter-spacing: 0.733333px&quot;&gt;锅炉房&lt;/span&gt;&lt;/font&gt;" style="shape=parallelogram;perimeter=parallelogramPerimeter;whiteSpace=wrap;html=1;fixedSize=1;" vertex="1" parent="3x9aasJJsVm33-Eb7aBt-2">
          <mxGeometry x="187.5" y="60" width="120" height="40" as="geometry" />
        </mxCell>
        <mxCell id="3x9aasJJsVm33-Eb7aBt-13" style="edgeStyle=orthogonalEdgeStyle;rounded=0;orthogonalLoop=1;jettySize=auto;html=1;entryX=0.5;entryY=0;entryDx=0;entryDy=0;strokeColor=#000000;" edge="1" parent="3x9aasJJsVm33-Eb7aBt-2" source="3x9aasJJsVm33-Eb7aBt-14" target="3x9aasJJsVm33-Eb7aBt-19">
          <mxGeometry relative="1" as="geometry" />
        </mxCell>
        <mxCell id="3x9aasJJsVm33-Eb7aBt-14" value="EP02-02_0" style="rounded=1;whiteSpace=wrap;html=1;shadow=0;comic=0;labelBackgroundColor=none;strokeWidth=1;fontFamily=Verdana;fontSize=12;align=center;arcSize=50;" vertex="1" parent="3x9aasJJsVm33-Eb7aBt-2">
          <mxGeometry x="97.5" y="240" width="100" height="30" as="geometry" />
        </mxCell>
        <mxCell id="3x9aasJJsVm33-Eb7aBt-15" value="EP08-01" style="shape=note;whiteSpace=wrap;html=1;rounded=0;shadow=0;comic=0;labelBackgroundColor=none;strokeWidth=1;fontFamily=Verdana;fontSize=12;align=center;size=20;fillColor=#dae8fc;strokeColor=#6c8ebf;" vertex="1" parent="3x9aasJJsVm33-Eb7aBt-2">
          <mxGeometry x="32.49999999999999" y="290" width="85" height="42" as="geometry" />
        </mxCell>
        <mxCell id="3x9aasJJsVm33-Eb7aBt-16" value="锅炉房" style="shape=card;whiteSpace=wrap;html=1;size=20;fillColor=#d5e8d4;strokeColor=#82b366;" vertex="1" parent="3x9aasJJsVm33-Eb7aBt-2">
          <mxGeometry x="212.5" y="290" width="70" height="40" as="geometry" />
        </mxCell>
        <mxCell id="3x9aasJJsVm33-Eb7aBt-17" style="edgeStyle=none;rounded=0;html=1;labelBackgroundColor=none;startArrow=none;startFill=0;startSize=5;endArrow=oval;endFill=0;endSize=5;jettySize=auto;orthogonalLoop=1;strokeWidth=1;fontFamily=Verdana;fontSize=12;dashed=1;exitX=0;exitY=0;exitDx=75;exitDy=10;exitPerimeter=0;" edge="1" parent="3x9aasJJsVm33-Eb7aBt-2" source="3x9aasJJsVm33-Eb7aBt-15" target="3x9aasJJsVm33-Eb7aBt-14">
          <mxGeometry relative="1" as="geometry">
            <mxPoint x="122.505" y="344" as="sourcePoint" />
          </mxGeometry>
        </mxCell>
        <mxCell id="3x9aasJJsVm33-Eb7aBt-18" style="edgeStyle=none;rounded=0;orthogonalLoop=1;jettySize=auto;html=1;dashed=1;startArrow=oval;startFill=0;" edge="1" parent="3x9aasJJsVm33-Eb7aBt-2" source="3x9aasJJsVm33-Eb7aBt-16" target="3x9aasJJsVm33-Eb7aBt-14">
          <mxGeometry relative="1" as="geometry" />
        </mxCell>
        <mxCell id="3x9aasJJsVm33-Eb7aBt-19" value="EP02-03_0" style="rounded=1;whiteSpace=wrap;html=1;shadow=0;comic=0;labelBackgroundColor=none;strokeWidth=1;fontFamily=Verdana;fontSize=12;align=center;arcSize=50;" vertex="1" parent="3x9aasJJsVm33-Eb7aBt-2">
          <mxGeometry x="97.5" y="360" width="100" height="30" as="geometry" />
        </mxCell>
        <mxCell id="3x9aasJJsVm33-Eb7aBt-20" value="EP08-01" style="shape=note;whiteSpace=wrap;html=1;rounded=0;shadow=0;comic=0;labelBackgroundColor=none;strokeWidth=1;fontFamily=Verdana;fontSize=12;align=center;size=20;fillColor=#dae8fc;strokeColor=#6c8ebf;" vertex="1" parent="3x9aasJJsVm33-Eb7aBt-2">
          <mxGeometry x="12.5" y="410" width="85" height="42" as="geometry" />
        </mxCell>
        <mxCell id="3x9aasJJsVm33-Eb7aBt-21" style="edgeStyle=none;rounded=0;html=1;labelBackgroundColor=none;startArrow=none;startFill=0;startSize=5;endArrow=oval;endFill=0;endSize=5;jettySize=auto;orthogonalLoop=1;strokeWidth=1;fontFamily=Verdana;fontSize=12;dashed=1;entryX=0.25;entryY=1;entryDx=0;entryDy=0;exitX=0.966;exitY=0.262;exitDx=0;exitDy=0;exitPerimeter=0;" edge="1" parent="3x9aasJJsVm33-Eb7aBt-2" source="3x9aasJJsVm33-Eb7aBt-20" target="3x9aasJJsVm33-Eb7aBt-19">
          <mxGeometry relative="1" as="geometry">
            <mxPoint x="-220.94" y="1510" as="sourcePoint" />
            <mxPoint x="-250.94" y="1440" as="targetPoint" />
          </mxGeometry>
        </mxCell>
        <mxCell id="3x9aasJJsVm33-Eb7aBt-22" style="edgeStyle=none;rounded=0;orthogonalLoop=1;jettySize=auto;html=1;entryX=0.75;entryY=1;entryDx=0;entryDy=0;dashed=1;startArrow=oval;startFill=0;" edge="1" parent="3x9aasJJsVm33-Eb7aBt-2" source="3x9aasJJsVm33-Eb7aBt-23" target="3x9aasJJsVm33-Eb7aBt-19">
          <mxGeometry relative="1" as="geometry" />
        </mxCell>
        <mxCell id="3x9aasJJsVm33-Eb7aBt-23" value="锅炉房" style="shape=card;whiteSpace=wrap;html=1;size=20;fillColor=#d5e8d4;strokeColor=#82b366;" vertex="1" parent="3x9aasJJsVm33-Eb7aBt-2">
          <mxGeometry x="230" y="400" width="70" height="40" as="geometry" />
        </mxCell>
        <mxCell id="3x9aasJJsVm33-Eb7aBt-24" value="&lt;font color=&quot;#262626&quot;&gt;&lt;span style=&quot;font-size: 14px ; font-weight: 400 ; letter-spacing: 0.733333px&quot;&gt;接待室&lt;/span&gt;&lt;/font&gt;" style="swimlane;html=1;startSize=20;" vertex="1" parent="3x9aasJJsVm33-Eb7aBt-1">
          <mxGeometry x="340" y="20" width="350" height="1930" as="geometry" />
        </mxCell>
        <mxCell id="3x9aasJJsVm33-Eb7aBt-25" value="" style="whiteSpace=wrap;html=1;rounded=0;shadow=0;comic=0;labelBackgroundColor=none;strokeWidth=1;fillColor=#000000;fontFamily=Verdana;fontSize=12;align=center;rotation=0;" vertex="1" parent="3x9aasJJsVm33-Eb7aBt-24">
          <mxGeometry x="-1.56" y="510" width="351.56" height="10" as="geometry" />
        </mxCell>
        <mxCell id="3x9aasJJsVm33-Eb7aBt-26" value="EP02-04_0" style="rounded=1;whiteSpace=wrap;html=1;shadow=0;comic=0;labelBackgroundColor=none;strokeWidth=1;fontFamily=Verdana;fontSize=12;align=center;arcSize=50;" vertex="1" parent="3x9aasJJsVm33-Eb7aBt-24">
          <mxGeometry x="125" y="600" width="100" height="30" as="geometry" />
        </mxCell>
        <mxCell id="3x9aasJJsVm33-Eb7aBt-27" style="edgeStyle=none;rounded=0;html=1;labelBackgroundColor=none;startArrow=none;startFill=0;startSize=5;endArrow=classicThin;endFill=1;endSize=5;jettySize=auto;orthogonalLoop=1;strokeWidth=1;fontFamily=Verdana;fontSize=12;exitX=0.5;exitY=1;exitDx=0;exitDy=0;" edge="1" parent="3x9aasJJsVm33-Eb7aBt-24" source="3x9aasJJsVm33-Eb7aBt-26">
          <mxGeometry relative="1" as="geometry">
            <mxPoint x="175.0000000000001" y="720" as="targetPoint" />
            <mxPoint x="175.00000000000006" y="650" as="sourcePoint" />
          </mxGeometry>
        </mxCell>
        <mxCell id="3x9aasJJsVm33-Eb7aBt-28" value="EP02-04" style="shape=note;whiteSpace=wrap;html=1;rounded=0;shadow=0;comic=0;labelBackgroundColor=none;strokeWidth=1;fontFamily=Verdana;fontSize=12;align=center;size=20;fillColor=#dae8fc;strokeColor=#6c8ebf;" vertex="1" parent="3x9aasJJsVm33-Eb7aBt-24">
          <mxGeometry x="40" y="660" width="85" height="42" as="geometry" />
        </mxCell>
        <mxCell id="3x9aasJJsVm33-Eb7aBt-29" style="edgeStyle=none;rounded=0;html=1;labelBackgroundColor=none;startArrow=none;startFill=0;startSize=5;endArrow=oval;endFill=0;endSize=5;jettySize=auto;orthogonalLoop=1;strokeWidth=1;fontFamily=Verdana;fontSize=12;dashed=1;entryX=0.34;entryY=0.973;entryDx=0;entryDy=0;exitX=0.966;exitY=0.262;exitDx=0;exitDy=0;exitPerimeter=0;entryPerimeter=0;" edge="1" parent="3x9aasJJsVm33-Eb7aBt-24" source="3x9aasJJsVm33-Eb7aBt-28" target="3x9aasJJsVm33-Eb7aBt-26">
          <mxGeometry relative="1" as="geometry">
            <mxPoint x="143.12" y="690" as="sourcePoint" />
            <mxPoint x="150.00000000000006" y="650" as="targetPoint" />
          </mxGeometry>
        </mxCell>
        <mxCell id="3x9aasJJsVm33-Eb7aBt-30" style="edgeStyle=orthogonalEdgeStyle;rounded=0;orthogonalLoop=1;jettySize=auto;html=1;entryX=0.5;entryY=0;entryDx=0;entryDy=0;strokeColor=#000000;" edge="1" parent="3x9aasJJsVm33-Eb7aBt-24" source="3x9aasJJsVm33-Eb7aBt-31" target="3x9aasJJsVm33-Eb7aBt-43">
          <mxGeometry relative="1" as="geometry" />
        </mxCell>
        <mxCell id="3x9aasJJsVm33-Eb7aBt-31" value="EP02-05_0" style="rounded=1;whiteSpace=wrap;html=1;shadow=0;comic=0;labelBackgroundColor=none;strokeWidth=1;fontFamily=Verdana;fontSize=12;align=center;arcSize=50;" vertex="1" parent="3x9aasJJsVm33-Eb7aBt-24">
          <mxGeometry x="125" y="720" width="100" height="30" as="geometry" />
        </mxCell>
        <mxCell id="3x9aasJJsVm33-Eb7aBt-32" style="edgeStyle=none;rounded=0;orthogonalLoop=1;jettySize=auto;html=1;entryX=0.75;entryY=1;entryDx=0;entryDy=0;dashed=1;startArrow=oval;startFill=0;" edge="1" parent="3x9aasJJsVm33-Eb7aBt-24" source="3x9aasJJsVm33-Eb7aBt-33" target="3x9aasJJsVm33-Eb7aBt-26">
          <mxGeometry relative="1" as="geometry">
            <mxPoint x="200.00000000000006" y="650" as="targetPoint" />
          </mxGeometry>
        </mxCell>
        <mxCell id="3x9aasJJsVm33-Eb7aBt-33" value="&lt;span style=&quot;font-size: 10.5pt ; color: #262626 ; letter-spacing: 0.55pt&quot;&gt;医生门前&lt;/span&gt;" style="shape=card;whiteSpace=wrap;html=1;size=20;fillColor=#d5e8d4;strokeColor=#82b366;" vertex="1" parent="3x9aasJJsVm33-Eb7aBt-24">
          <mxGeometry x="233.12" y="670" width="70" height="40" as="geometry" />
        </mxCell>
        <mxCell id="3x9aasJJsVm33-Eb7aBt-34" style="edgeStyle=none;rounded=0;orthogonalLoop=1;jettySize=auto;html=1;entryX=1;entryY=0.75;entryDx=0;entryDy=0;dashed=1;startArrow=oval;startFill=0;" edge="1" parent="3x9aasJJsVm33-Eb7aBt-24" source="3x9aasJJsVm33-Eb7aBt-35" target="3x9aasJJsVm33-Eb7aBt-31">
          <mxGeometry relative="1" as="geometry" />
        </mxCell>
        <mxCell id="3x9aasJJsVm33-Eb7aBt-35" value="二楼西侧走廊（浴室前" style="shape=card;whiteSpace=wrap;html=1;size=20;fillColor=#d5e8d4;strokeColor=#82b366;" vertex="1" parent="3x9aasJJsVm33-Eb7aBt-24">
          <mxGeometry x="233.12" y="780" width="70" height="40" as="geometry" />
        </mxCell>
        <mxCell id="3x9aasJJsVm33-Eb7aBt-36" style="edgeStyle=none;rounded=0;orthogonalLoop=1;jettySize=auto;html=1;entryX=0;entryY=0.75;entryDx=0;entryDy=0;dashed=1;startArrow=oval;startFill=0;" edge="1" parent="3x9aasJJsVm33-Eb7aBt-24" source="3x9aasJJsVm33-Eb7aBt-37" target="3x9aasJJsVm33-Eb7aBt-31">
          <mxGeometry relative="1" as="geometry" />
        </mxCell>
        <mxCell id="3x9aasJJsVm33-Eb7aBt-37" value="EP02-05" style="shape=note;whiteSpace=wrap;html=1;rounded=0;shadow=0;comic=0;labelBackgroundColor=none;strokeWidth=1;fontFamily=Verdana;fontSize=12;align=center;size=20;fillColor=#dae8fc;strokeColor=#6c8ebf;" vertex="1" parent="3x9aasJJsVm33-Eb7aBt-24">
          <mxGeometry x="48.12" y="780" width="85" height="42" as="geometry" />
        </mxCell>
        <mxCell id="3x9aasJJsVm33-Eb7aBt-38" value="" style="whiteSpace=wrap;html=1;rounded=0;shadow=0;comic=0;labelBackgroundColor=none;strokeWidth=1;fillColor=#000000;fontFamily=Verdana;fontSize=12;align=center;rotation=0;" vertex="1" parent="3x9aasJJsVm33-Eb7aBt-24">
          <mxGeometry y="1600" width="350" height="10" as="geometry" />
        </mxCell>
        <mxCell id="3x9aasJJsVm33-Eb7aBt-39" style="edgeStyle=orthogonalEdgeStyle;orthogonalLoop=1;jettySize=auto;html=1;entryX=0.75;entryY=0;entryDx=0;entryDy=0;strokeColor=#000000;curved=1;" edge="1" parent="3x9aasJJsVm33-Eb7aBt-24" source="3x9aasJJsVm33-Eb7aBt-40" target="3x9aasJJsVm33-Eb7aBt-26">
          <mxGeometry relative="1" as="geometry">
            <Array as="points">
              <mxPoint x="241.56" y="600" />
              <mxPoint x="208.56" y="600" />
            </Array>
          </mxGeometry>
        </mxCell>
        <mxCell id="3x9aasJJsVm33-Eb7aBt-40" value="&lt;font color=&quot;#262626&quot;&gt;&lt;span style=&quot;font-size: 14px ; letter-spacing: 0.733333px&quot;&gt;二楼西侧走廊&lt;/span&gt;&lt;/font&gt;" style="shape=parallelogram;perimeter=parallelogramPerimeter;whiteSpace=wrap;html=1;fixedSize=1;" vertex="1" parent="3x9aasJJsVm33-Eb7aBt-24">
          <mxGeometry x="208.12000000000006" y="540" width="120" height="40" as="geometry" />
        </mxCell>
        <mxCell id="3x9aasJJsVm33-Eb7aBt-41" style="edgeStyle=orthogonalEdgeStyle;rounded=0;orthogonalLoop=1;jettySize=auto;html=1;exitX=0;exitY=0;exitDx=32.5;exitDy=0;exitPerimeter=0;entryX=0.387;entryY=0.238;entryDx=0;entryDy=0;entryPerimeter=0;strokeColor=#000000;" edge="1" parent="3x9aasJJsVm33-Eb7aBt-24" source="3x9aasJJsVm33-Eb7aBt-37" target="3x9aasJJsVm33-Eb7aBt-37">
          <mxGeometry relative="1" as="geometry" />
        </mxCell>
        <mxCell id="3x9aasJJsVm33-Eb7aBt-42" style="edgeStyle=orthogonalEdgeStyle;rounded=0;orthogonalLoop=1;jettySize=auto;html=1;entryX=0.5;entryY=0;entryDx=0;entryDy=0;strokeColor=#000000;" edge="1" parent="3x9aasJJsVm33-Eb7aBt-24" source="3x9aasJJsVm33-Eb7aBt-43" target="3x9aasJJsVm33-Eb7aBt-50">
          <mxGeometry relative="1" as="geometry" />
        </mxCell>
        <mxCell id="3x9aasJJsVm33-Eb7aBt-43" value="EP02-06_0" style="rounded=1;whiteSpace=wrap;html=1;shadow=0;comic=0;labelBackgroundColor=none;strokeWidth=1;fontFamily=Verdana;fontSize=12;align=center;arcSize=50;" vertex="1" parent="3x9aasJJsVm33-Eb7aBt-24">
          <mxGeometry x="125" y="860" width="100" height="30" as="geometry" />
        </mxCell>
        <mxCell id="3x9aasJJsVm33-Eb7aBt-44" style="edgeStyle=none;rounded=0;orthogonalLoop=1;jettySize=auto;html=1;entryX=1;entryY=0.75;entryDx=0;entryDy=0;dashed=1;startArrow=oval;startFill=0;" edge="1" parent="3x9aasJJsVm33-Eb7aBt-24" source="3x9aasJJsVm33-Eb7aBt-45" target="3x9aasJJsVm33-Eb7aBt-43">
          <mxGeometry relative="1" as="geometry" />
        </mxCell>
        <mxCell id="3x9aasJJsVm33-Eb7aBt-45" value="典狱长房间" style="shape=card;whiteSpace=wrap;html=1;size=20;fillColor=#d5e8d4;strokeColor=#82b366;" vertex="1" parent="3x9aasJJsVm33-Eb7aBt-24">
          <mxGeometry x="240" y="912" width="70" height="40" as="geometry" />
        </mxCell>
        <mxCell id="3x9aasJJsVm33-Eb7aBt-46" style="edgeStyle=none;rounded=0;orthogonalLoop=1;jettySize=auto;html=1;entryX=0;entryY=0.75;entryDx=0;entryDy=0;dashed=1;startArrow=oval;startFill=0;" edge="1" parent="3x9aasJJsVm33-Eb7aBt-24" source="3x9aasJJsVm33-Eb7aBt-47" target="3x9aasJJsVm33-Eb7aBt-43">
          <mxGeometry relative="1" as="geometry" />
        </mxCell>
        <mxCell id="3x9aasJJsVm33-Eb7aBt-47" value="EP02-06" style="shape=note;whiteSpace=wrap;html=1;rounded=0;shadow=0;comic=0;labelBackgroundColor=none;strokeWidth=1;fontFamily=Verdana;fontSize=12;align=center;size=20;fillColor=#dae8fc;strokeColor=#6c8ebf;" vertex="1" parent="3x9aasJJsVm33-Eb7aBt-24">
          <mxGeometry x="30" y="910" width="85" height="42" as="geometry" />
        </mxCell>
        <mxCell id="3x9aasJJsVm33-Eb7aBt-48" style="edgeStyle=orthogonalEdgeStyle;rounded=0;orthogonalLoop=1;jettySize=auto;html=1;exitX=0;exitY=0;exitDx=32.5;exitDy=0;exitPerimeter=0;entryX=0.387;entryY=0.238;entryDx=0;entryDy=0;entryPerimeter=0;strokeColor=#000000;" edge="1" parent="3x9aasJJsVm33-Eb7aBt-24" source="3x9aasJJsVm33-Eb7aBt-47" target="3x9aasJJsVm33-Eb7aBt-47">
          <mxGeometry relative="1" as="geometry" />
        </mxCell>
        <mxCell id="3x9aasJJsVm33-Eb7aBt-49" style="edgeStyle=orthogonalEdgeStyle;rounded=0;orthogonalLoop=1;jettySize=auto;html=1;entryX=0.5;entryY=0;entryDx=0;entryDy=0;strokeColor=#000000;" edge="1" parent="3x9aasJJsVm33-Eb7aBt-24" source="3x9aasJJsVm33-Eb7aBt-50" target="3x9aasJJsVm33-Eb7aBt-57">
          <mxGeometry relative="1" as="geometry" />
        </mxCell>
        <mxCell id="3x9aasJJsVm33-Eb7aBt-50" value="EP02-07_0" style="rounded=1;whiteSpace=wrap;html=1;shadow=0;comic=0;labelBackgroundColor=none;strokeWidth=1;fontFamily=Verdana;fontSize=12;align=center;arcSize=50;" vertex="1" parent="3x9aasJJsVm33-Eb7aBt-24">
          <mxGeometry x="124.38" y="1050" width="100" height="30" as="geometry" />
        </mxCell>
        <mxCell id="3x9aasJJsVm33-Eb7aBt-51" style="edgeStyle=none;rounded=0;orthogonalLoop=1;jettySize=auto;html=1;entryX=1;entryY=0.75;entryDx=0;entryDy=0;dashed=1;startArrow=oval;startFill=0;" edge="1" parent="3x9aasJJsVm33-Eb7aBt-24" source="3x9aasJJsVm33-Eb7aBt-52" target="3x9aasJJsVm33-Eb7aBt-50">
          <mxGeometry relative="1" as="geometry" />
        </mxCell>
        <mxCell id="3x9aasJJsVm33-Eb7aBt-52" value="典狱长房间门外" style="shape=card;whiteSpace=wrap;html=1;size=20;fillColor=#d5e8d4;strokeColor=#82b366;" vertex="1" parent="3x9aasJJsVm33-Eb7aBt-24">
          <mxGeometry x="232.5" y="1110" width="70" height="40" as="geometry" />
        </mxCell>
        <mxCell id="3x9aasJJsVm33-Eb7aBt-53" style="edgeStyle=none;rounded=0;orthogonalLoop=1;jettySize=auto;html=1;entryX=0;entryY=0.75;entryDx=0;entryDy=0;dashed=1;startArrow=oval;startFill=0;" edge="1" parent="3x9aasJJsVm33-Eb7aBt-24" source="3x9aasJJsVm33-Eb7aBt-54" target="3x9aasJJsVm33-Eb7aBt-50">
          <mxGeometry relative="1" as="geometry" />
        </mxCell>
        <mxCell id="3x9aasJJsVm33-Eb7aBt-54" value="EP02-07" style="shape=note;whiteSpace=wrap;html=1;rounded=0;shadow=0;comic=0;labelBackgroundColor=none;strokeWidth=1;fontFamily=Verdana;fontSize=12;align=center;size=20;fillColor=#dae8fc;strokeColor=#6c8ebf;" vertex="1" parent="3x9aasJJsVm33-Eb7aBt-24">
          <mxGeometry x="47.5" y="1110" width="85" height="42" as="geometry" />
        </mxCell>
        <mxCell id="3x9aasJJsVm33-Eb7aBt-55" style="edgeStyle=orthogonalEdgeStyle;rounded=0;orthogonalLoop=1;jettySize=auto;html=1;exitX=0;exitY=0;exitDx=32.5;exitDy=0;exitPerimeter=0;entryX=0.387;entryY=0.238;entryDx=0;entryDy=0;entryPerimeter=0;strokeColor=#000000;" edge="1" parent="3x9aasJJsVm33-Eb7aBt-24" source="3x9aasJJsVm33-Eb7aBt-54" target="3x9aasJJsVm33-Eb7aBt-54">
          <mxGeometry relative="1" as="geometry" />
        </mxCell>
        <mxCell id="3x9aasJJsVm33-Eb7aBt-56" style="edgeStyle=orthogonalEdgeStyle;rounded=0;orthogonalLoop=1;jettySize=auto;html=1;entryX=0.5;entryY=0;entryDx=0;entryDy=0;strokeColor=#000000;" edge="1" parent="3x9aasJJsVm33-Eb7aBt-24" source="3x9aasJJsVm33-Eb7aBt-57">
          <mxGeometry relative="1" as="geometry">
            <mxPoint x="174.3800000000001" y="1330" as="targetPoint" />
          </mxGeometry>
        </mxCell>
        <mxCell id="3x9aasJJsVm33-Eb7aBt-57" value="EP02-08_0" style="rounded=1;whiteSpace=wrap;html=1;shadow=0;comic=0;labelBackgroundColor=none;strokeWidth=1;fontFamily=Verdana;fontSize=12;align=center;arcSize=50;" vertex="1" parent="3x9aasJJsVm33-Eb7aBt-24">
          <mxGeometry x="124.38" y="1190" width="100" height="30" as="geometry" />
        </mxCell>
        <mxCell id="3x9aasJJsVm33-Eb7aBt-58" style="edgeStyle=none;rounded=0;orthogonalLoop=1;jettySize=auto;html=1;entryX=1;entryY=0.75;entryDx=0;entryDy=0;dashed=1;startArrow=oval;startFill=0;" edge="1" parent="3x9aasJJsVm33-Eb7aBt-24" source="3x9aasJJsVm33-Eb7aBt-59" target="3x9aasJJsVm33-Eb7aBt-57">
          <mxGeometry relative="1" as="geometry" />
        </mxCell>
        <mxCell id="3x9aasJJsVm33-Eb7aBt-59" value="二楼西侧走廊（浴室前" style="shape=card;whiteSpace=wrap;html=1;size=20;fillColor=#d5e8d4;strokeColor=#82b366;" vertex="1" parent="3x9aasJJsVm33-Eb7aBt-24">
          <mxGeometry x="232.5" y="1250" width="70" height="40" as="geometry" />
        </mxCell>
        <mxCell id="3x9aasJJsVm33-Eb7aBt-60" style="edgeStyle=none;rounded=0;orthogonalLoop=1;jettySize=auto;html=1;entryX=0;entryY=0.75;entryDx=0;entryDy=0;dashed=1;startArrow=oval;startFill=0;" edge="1" parent="3x9aasJJsVm33-Eb7aBt-24" source="3x9aasJJsVm33-Eb7aBt-61" target="3x9aasJJsVm33-Eb7aBt-57">
          <mxGeometry relative="1" as="geometry" />
        </mxCell>
        <mxCell id="3x9aasJJsVm33-Eb7aBt-61" value="EP02-08" style="shape=note;whiteSpace=wrap;html=1;rounded=0;shadow=0;comic=0;labelBackgroundColor=none;strokeWidth=1;fontFamily=Verdana;fontSize=12;align=center;size=20;fillColor=#dae8fc;strokeColor=#6c8ebf;" vertex="1" parent="3x9aasJJsVm33-Eb7aBt-24">
          <mxGeometry x="47.5" y="1250" width="85" height="42" as="geometry" />
        </mxCell>
        <mxCell id="3x9aasJJsVm33-Eb7aBt-62" style="edgeStyle=orthogonalEdgeStyle;rounded=0;orthogonalLoop=1;jettySize=auto;html=1;exitX=0;exitY=0;exitDx=32.5;exitDy=0;exitPerimeter=0;entryX=0.387;entryY=0.238;entryDx=0;entryDy=0;entryPerimeter=0;strokeColor=#000000;" edge="1" parent="3x9aasJJsVm33-Eb7aBt-24" source="3x9aasJJsVm33-Eb7aBt-61" target="3x9aasJJsVm33-Eb7aBt-61">
          <mxGeometry relative="1" as="geometry" />
        </mxCell>
        <mxCell id="3x9aasJJsVm33-Eb7aBt-63" value="EP02-09_0" style="rounded=1;whiteSpace=wrap;html=1;shadow=0;comic=0;labelBackgroundColor=none;strokeWidth=1;fontFamily=Verdana;fontSize=12;align=center;arcSize=50;" vertex="1" parent="3x9aasJJsVm33-Eb7aBt-24">
          <mxGeometry x="125" y="1330" width="100" height="30" as="geometry" />
        </mxCell>
        <mxCell id="3x9aasJJsVm33-Eb7aBt-64" style="edgeStyle=none;rounded=0;orthogonalLoop=1;jettySize=auto;html=1;entryX=1;entryY=0.75;entryDx=0;entryDy=0;dashed=1;startArrow=oval;startFill=0;" edge="1" parent="3x9aasJJsVm33-Eb7aBt-24" source="3x9aasJJsVm33-Eb7aBt-65" target="3x9aasJJsVm33-Eb7aBt-63">
          <mxGeometry relative="1" as="geometry" />
        </mxCell>
        <mxCell id="3x9aasJJsVm33-Eb7aBt-65" value="艾琳的客房&lt;br&gt;&lt;span style=&quot;font-size: 9.5pt ; color: #262626 ; letter-spacing: 0.55pt&quot;&gt;二楼东北角房间&lt;/span&gt;" style="shape=card;whiteSpace=wrap;html=1;size=20;fillColor=#d5e8d4;strokeColor=#82b366;" vertex="1" parent="3x9aasJJsVm33-Eb7aBt-24">
          <mxGeometry x="233.12" y="1390" width="96.88" height="60" as="geometry" />
        </mxCell>
        <mxCell id="3x9aasJJsVm33-Eb7aBt-66" style="edgeStyle=none;rounded=0;orthogonalLoop=1;jettySize=auto;html=1;entryX=0;entryY=0.75;entryDx=0;entryDy=0;dashed=1;startArrow=oval;startFill=0;" edge="1" parent="3x9aasJJsVm33-Eb7aBt-24" target="3x9aasJJsVm33-Eb7aBt-63">
          <mxGeometry relative="1" as="geometry">
            <mxPoint x="102.96153846153845" y="1390" as="sourcePoint" />
          </mxGeometry>
        </mxCell>
        <mxCell id="3x9aasJJsVm33-Eb7aBt-67" value="EP02-09" style="shape=note;whiteSpace=wrap;html=1;rounded=0;shadow=0;comic=0;labelBackgroundColor=none;strokeWidth=1;fontFamily=Verdana;fontSize=12;align=center;size=20;fillColor=#dae8fc;strokeColor=#6c8ebf;" vertex="1" parent="3x9aasJJsVm33-Eb7aBt-24">
          <mxGeometry x="48.12" y="1390" width="85" height="50" as="geometry" />
        </mxCell>
        <mxCell id="3x9aasJJsVm33-Eb7aBt-68" value="典狱长房间CG场景" style="rounded=0;whiteSpace=wrap;html=1;shadow=0;comic=0;labelBackgroundColor=none;strokeWidth=1;fontFamily=Verdana;fontSize=12;align=center;arcSize=50;fillColor=#ffe6cc;strokeColor=#d79b00;" vertex="1" parent="3x9aasJJsVm33-Eb7aBt-24">
          <mxGeometry x="126.75" y="950" width="96.5" height="50" as="geometry" />
        </mxCell>
        <mxCell id="3x9aasJJsVm33-Eb7aBt-69" value="&lt;span style=&quot;color: rgb(38 , 38 , 38) ; font-size: 14px ; font-weight: 400 ; letter-spacing: 0.733333px&quot;&gt;一楼&lt;/span&gt;" style="swimlane;html=1;startSize=20;" vertex="1" parent="3x9aasJJsVm33-Eb7aBt-1">
          <mxGeometry x="690" y="20" width="360.0000000000001" height="1930" as="geometry" />
        </mxCell>
        <mxCell id="3x9aasJJsVm33-Eb7aBt-70" style="rounded=0;html=1;labelBackgroundColor=none;startArrow=none;startFill=0;startSize=5;endArrow=classicThin;endFill=1;endSize=5;jettySize=auto;orthogonalLoop=1;strokeWidth=1;fontFamily=Verdana;fontSize=12" edge="1" parent="3x9aasJJsVm33-Eb7aBt-69">
          <mxGeometry relative="1" as="geometry">
            <mxPoint x="61.25" y="268" as="targetPoint" />
          </mxGeometry>
        </mxCell>
        <mxCell id="3x9aasJJsVm33-Eb7aBt-71" style="edgeStyle=none;rounded=0;html=1;labelBackgroundColor=none;startArrow=none;startFill=0;startSize=5;endArrow=classicThin;endFill=1;endSize=5;jettySize=auto;orthogonalLoop=1;strokeWidth=1;fontFamily=Verdana;fontSize=12" edge="1" parent="3x9aasJJsVm33-Eb7aBt-69">
          <mxGeometry relative="1" as="geometry">
            <mxPoint x="35" y="367.2222222222222" as="targetPoint" />
          </mxGeometry>
        </mxCell>
        <mxCell id="3x9aasJJsVm33-Eb7aBt-72" style="edgeStyle=none;rounded=0;html=1;labelBackgroundColor=none;startArrow=none;startFill=0;startSize=5;endArrow=classicThin;endFill=1;endSize=5;jettySize=auto;orthogonalLoop=1;strokeWidth=1;fontFamily=Verdana;fontSize=12" edge="1" parent="3x9aasJJsVm33-Eb7aBt-69">
          <mxGeometry relative="1" as="geometry">
            <mxPoint x="70.5645161290322" y="298" as="sourcePoint" />
          </mxGeometry>
        </mxCell>
        <mxCell id="3x9aasJJsVm33-Eb7aBt-73" style="edgeStyle=none;rounded=0;html=1;dashed=1;labelBackgroundColor=none;startArrow=none;startFill=0;startSize=5;endArrow=oval;endFill=0;endSize=5;jettySize=auto;orthogonalLoop=1;strokeWidth=1;fontFamily=Verdana;fontSize=12" edge="1" parent="3x9aasJJsVm33-Eb7aBt-69">
          <mxGeometry relative="1" as="geometry">
            <mxPoint x="160" y="257.8780487804878" as="sourcePoint" />
          </mxGeometry>
        </mxCell>
        <mxCell id="3x9aasJJsVm33-Eb7aBt-74" style="edgeStyle=none;rounded=0;html=1;dashed=1;labelBackgroundColor=none;startArrow=none;startFill=0;startSize=5;endArrow=oval;endFill=0;endSize=5;jettySize=auto;orthogonalLoop=1;strokeWidth=1;fontFamily=Verdana;fontSize=12" edge="1" parent="3x9aasJJsVm33-Eb7aBt-69">
          <mxGeometry relative="1" as="geometry">
            <mxPoint x="85" y="281.81355932203394" as="targetPoint" />
          </mxGeometry>
        </mxCell>
        <mxCell id="3x9aasJJsVm33-Eb7aBt-75" style="edgeStyle=none;rounded=0;html=1;dashed=1;labelBackgroundColor=none;startArrow=none;startFill=0;startSize=5;endArrow=oval;endFill=0;endSize=5;jettySize=auto;orthogonalLoop=1;strokeWidth=1;fontFamily=Verdana;fontSize=12" edge="1" parent="3x9aasJJsVm33-Eb7aBt-69">
          <mxGeometry relative="1" as="geometry">
            <mxPoint x="154.74358974358984" y="415" as="sourcePoint" />
          </mxGeometry>
        </mxCell>
        <mxCell id="3x9aasJJsVm33-Eb7aBt-76" style="edgeStyle=none;rounded=0;html=1;dashed=1;labelBackgroundColor=none;startArrow=none;startFill=0;startSize=5;endArrow=oval;endFill=0;endSize=5;jettySize=auto;orthogonalLoop=1;strokeWidth=1;fontFamily=Verdana;fontSize=12" edge="1" parent="3x9aasJJsVm33-Eb7aBt-69">
          <mxGeometry relative="1" as="geometry">
            <mxPoint x="35" y="389.53846153846155" as="targetPoint" />
          </mxGeometry>
        </mxCell>
        <mxCell id="3x9aasJJsVm33-Eb7aBt-77" value="" style="ellipse;html=1;shape=endState;fillColor=#000000;strokeColor=#ff0000;" vertex="1" parent="3x9aasJJsVm33-Eb7aBt-69">
          <mxGeometry x="181.88" y="1790" width="30" height="30" as="geometry" />
        </mxCell>
        <mxCell id="3x9aasJJsVm33-Eb7aBt-78" style="edgeStyle=orthogonalEdgeStyle;rounded=0;orthogonalLoop=1;jettySize=auto;html=1;entryX=0.5;entryY=0;entryDx=0;entryDy=0;strokeColor=#000000;" edge="1" parent="3x9aasJJsVm33-Eb7aBt-69" source="3x9aasJJsVm33-Eb7aBt-79" target="3x9aasJJsVm33-Eb7aBt-77">
          <mxGeometry relative="1" as="geometry" />
        </mxCell>
        <mxCell id="3x9aasJJsVm33-Eb7aBt-79" value="EP02-10_0" style="rounded=1;whiteSpace=wrap;html=1;shadow=0;comic=0;labelBackgroundColor=none;strokeWidth=1;fontFamily=Verdana;fontSize=12;align=center;arcSize=50;" vertex="1" parent="3x9aasJJsVm33-Eb7aBt-69">
          <mxGeometry x="146.88" y="1645" width="100" height="30" as="geometry" />
        </mxCell>
        <mxCell id="3x9aasJJsVm33-Eb7aBt-80" style="edgeStyle=none;rounded=0;orthogonalLoop=1;jettySize=auto;html=1;entryX=1;entryY=0.75;entryDx=0;entryDy=0;dashed=1;startArrow=oval;startFill=0;" edge="1" parent="3x9aasJJsVm33-Eb7aBt-69" source="3x9aasJJsVm33-Eb7aBt-81" target="3x9aasJJsVm33-Eb7aBt-79">
          <mxGeometry relative="1" as="geometry" />
        </mxCell>
        <mxCell id="3x9aasJJsVm33-Eb7aBt-81" value="&lt;span style=&quot;color: rgb(38 , 38 , 38) ; font-size: 14px ; letter-spacing: 0.733333px&quot;&gt;大厅&lt;/span&gt;" style="shape=card;whiteSpace=wrap;html=1;size=20;fillColor=#d5e8d4;strokeColor=#82b366;" vertex="1" parent="3x9aasJJsVm33-Eb7aBt-69">
          <mxGeometry x="255" y="1705" width="70" height="40" as="geometry" />
        </mxCell>
        <mxCell id="3x9aasJJsVm33-Eb7aBt-82" style="edgeStyle=none;rounded=0;orthogonalLoop=1;jettySize=auto;html=1;entryX=0;entryY=0.75;entryDx=0;entryDy=0;dashed=1;startArrow=oval;startFill=0;" edge="1" parent="3x9aasJJsVm33-Eb7aBt-69" source="3x9aasJJsVm33-Eb7aBt-83" target="3x9aasJJsVm33-Eb7aBt-79">
          <mxGeometry relative="1" as="geometry" />
        </mxCell>
        <mxCell id="3x9aasJJsVm33-Eb7aBt-83" value="EP02-10" style="shape=note;whiteSpace=wrap;html=1;rounded=0;shadow=0;comic=0;labelBackgroundColor=none;strokeWidth=1;fontFamily=Verdana;fontSize=12;align=center;size=20;fillColor=#dae8fc;strokeColor=#6c8ebf;" vertex="1" parent="3x9aasJJsVm33-Eb7aBt-69">
          <mxGeometry x="70" y="1705" width="85" height="42" as="geometry" />
        </mxCell>
        <mxCell id="3x9aasJJsVm33-Eb7aBt-84" style="edgeStyle=orthogonalEdgeStyle;rounded=0;orthogonalLoop=1;jettySize=auto;html=1;exitX=0;exitY=0;exitDx=32.5;exitDy=0;exitPerimeter=0;entryX=0.387;entryY=0.238;entryDx=0;entryDy=0;entryPerimeter=0;strokeColor=#000000;" edge="1" parent="3x9aasJJsVm33-Eb7aBt-69" source="3x9aasJJsVm33-Eb7aBt-83" target="3x9aasJJsVm33-Eb7aBt-83">
          <mxGeometry relative="1" as="geometry" />
        </mxCell>
        <mxCell id="3x9aasJJsVm33-Eb7aBt-85" style="edgeStyle=orthogonalEdgeStyle;rounded=0;orthogonalLoop=1;jettySize=auto;html=1;entryX=0.75;entryY=0;entryDx=0;entryDy=0;strokeColor=#000000;" edge="1" parent="3x9aasJJsVm33-Eb7aBt-69" source="3x9aasJJsVm33-Eb7aBt-86" target="3x9aasJJsVm33-Eb7aBt-79">
          <mxGeometry relative="1" as="geometry" />
        </mxCell>
        <mxCell id="3x9aasJJsVm33-Eb7aBt-86" value="一楼南侧走廊" style="shape=parallelogram;perimeter=parallelogramPerimeter;whiteSpace=wrap;html=1;fixedSize=1;" vertex="1" parent="3x9aasJJsVm33-Eb7aBt-69">
          <mxGeometry x="240.0000000000001" y="1550" width="120" height="40" as="geometry" />
        </mxCell>
        <mxCell id="3x9aasJJsVm33-Eb7aBt-87" style="edgeStyle=orthogonalEdgeStyle;orthogonalLoop=1;jettySize=auto;html=1;strokeColor=#000000;rounded=0;" edge="1" parent="3x9aasJJsVm33-Eb7aBt-1" source="3x9aasJJsVm33-Eb7aBt-19" target="3x9aasJJsVm33-Eb7aBt-26">
          <mxGeometry relative="1" as="geometry">
            <Array as="points">
              <mxPoint x="148" y="480" />
              <mxPoint x="515" y="480" />
            </Array>
          </mxGeometry>
        </mxCell>
        <mxCell id="3x9aasJJsVm33-Eb7aBt-88" style="edgeStyle=orthogonalEdgeStyle;rounded=0;orthogonalLoop=1;jettySize=auto;html=1;entryX=0.5;entryY=0;entryDx=0;entryDy=0;strokeColor=#000000;" edge="1" parent="3x9aasJJsVm33-Eb7aBt-1" source="3x9aasJJsVm33-Eb7aBt-63" target="3x9aasJJsVm33-Eb7aBt-79">
          <mxGeometry relative="1" as="geometry">
            <Array as="points">
              <mxPoint x="887" y="1505" />
            </Array>
          </mxGeometry>
        </mxCell>
      </root>
    </mxGraphModel>
  </diagram>
</mxfile>
